<svg width="32" height="32" viewBox="0 0 32 32" fill="none" xmlns="http://www.w3.org/2000/svg">
<path d="M7.20044 0.599609H20.8352L27.4006 6.62891V28.8008C27.4006 30.2367 26.2369 31.4012 24.801 31.4014H7.20044C5.76446 31.4014 4.59985 30.2368 4.59985 28.8008V3.2002C4.59985 1.76421 5.76446 0.599609 7.20044 0.599609Z" stroke="#D0D5DD" stroke-width="1.20004"/>
<mask id="path-2-inside-1_12162_3424" fill="white">
<path d="M20.0005 0.799805H26.8007V7.60001H20.8005C20.3587 7.60001 20.0005 7.24183 20.0005 6.79999V0.799805Z"/>
</mask>
<path d="M20.0005 0.799805H26.8007H20.0005ZM26.8007 8.40004H20.8005C19.9168 8.40004 19.2005 7.68367 19.2005 6.79999H20.8005H26.8007V8.40004ZM20.8005 8.40004C19.9168 8.40004 19.2005 7.68367 19.2005 6.79999V0.799805H20.8005V6.79999V8.40004ZM26.8007 0.799805V7.60001V0.799805Z" fill="#D0D5DD" mask="url(#path-2-inside-1_12162_3424)"/>
<rect x="0.800049" y="16.0005" width="25.6" height="10.8001" rx="1.60005" fill="#444CE7"/>
<path d="M4.24278 18.7842C4.8348 18.7842 5.35215 18.9016 5.79483 19.1362C6.23751 19.3709 6.57885 19.7016 6.81886 20.1283C7.0642 20.5496 7.18687 21.0376 7.18687 21.5923C7.18687 22.1417 7.0642 22.6297 6.81886 23.0563C6.57885 23.483 6.23484 23.8137 5.78683 24.0484C5.34415 24.2831 4.82947 24.4004 4.24278 24.4004H2.13872V18.7842H4.24278ZM4.15478 23.2164C4.67213 23.2164 5.07481 23.075 5.36282 22.7923C5.65082 22.5097 5.79483 22.1097 5.79483 21.5923C5.79483 21.075 5.65082 20.6723 5.36282 20.3843C5.07481 20.0963 4.67213 19.9523 4.15478 19.9523H3.50676V23.2164H4.15478ZM10.6075 24.4564C10.0795 24.4564 9.59411 24.3337 9.15143 24.0884C8.71408 23.843 8.36474 23.5017 8.1034 23.0643C7.84739 22.6217 7.71939 22.1257 7.71939 21.5763C7.71939 21.027 7.84739 20.5336 8.1034 20.0963C8.36474 19.6589 8.71408 19.3176 9.15143 19.0722C9.59411 18.8269 10.0795 18.7042 10.6075 18.7042C11.1355 18.7042 11.6182 18.8269 12.0555 19.0722C12.4982 19.3176 12.8449 19.6589 13.0956 20.0963C13.3516 20.5336 13.4796 21.027 13.4796 21.5763C13.4796 22.1257 13.3516 22.6217 13.0956 23.0643C12.8395 23.5017 12.4929 23.843 12.0555 24.0884C11.6182 24.3337 11.1355 24.4564 10.6075 24.4564ZM10.6075 23.2084C11.0555 23.2084 11.4128 23.059 11.6795 22.7603C11.9515 22.4617 12.0875 22.067 12.0875 21.5763C12.0875 21.0803 11.9515 20.6856 11.6795 20.3923C11.4128 20.0936 11.0555 19.9443 10.6075 19.9443C10.1541 19.9443 9.79145 20.0909 9.51944 20.3843C9.25277 20.6776 9.11943 21.075 9.11943 21.5763C9.11943 22.0723 9.25277 22.4697 9.51944 22.7683C9.79145 23.0617 10.1541 23.2084 10.6075 23.2084ZM14.0086 21.5843C14.0086 21.0296 14.1286 20.5363 14.3687 20.1043C14.6087 19.6669 14.942 19.3282 15.3687 19.0882C15.8007 18.8429 16.2887 18.7202 16.8327 18.7202C17.4994 18.7202 18.0701 18.8962 18.5448 19.2482C19.0195 19.6002 19.3368 20.0803 19.4968 20.6883H17.9928C17.8808 20.4536 17.7208 20.2749 17.5127 20.1523C17.3101 20.0296 17.0781 19.9683 16.8167 19.9683C16.3954 19.9683 16.054 20.1149 15.7927 20.4083C15.5314 20.7016 15.4007 21.0936 15.4007 21.5843C15.4007 22.075 15.5314 22.467 15.7927 22.7603C16.054 23.0537 16.3954 23.2004 16.8167 23.2004C17.0781 23.2004 17.3101 23.139 17.5127 23.0163C17.7208 22.8937 17.8808 22.715 17.9928 22.4803H19.4968C19.3368 23.0884 19.0195 23.5684 18.5448 23.9204C18.0701 24.2671 17.4994 24.4404 16.8327 24.4404C16.2887 24.4404 15.8007 24.3204 15.3687 24.0804C14.942 23.835 14.6087 23.4964 14.3687 23.0643C14.1286 22.6323 14.0086 22.139 14.0086 21.5843ZM23.7747 24.4004L22.6307 22.6803L21.6226 24.4004H20.0706L21.8706 21.5443L20.0306 18.7842H21.6226L22.7507 20.4803L23.7427 18.7842H25.2947L23.5107 21.6163L25.3667 24.4004H23.7747Z" fill="white"/>
</svg>
