<svg width="32" height="32" viewBox="0 0 32 32" fill="none" xmlns="http://www.w3.org/2000/svg">
<path d="M27.9598 21.4401C27.6398 25.0001 25.0665 27.3334 21.3332 27.3334H9.33317C5.65317 27.3334 2.6665 24.3467 2.6665 20.6667V11.3334C2.6665 7.70675 4.85317 5.17341 8.25317 4.74675C8.59984 4.69341 8.95984 4.66675 9.33317 4.66675H21.3332C21.6798 4.66675 22.0132 4.68008 22.3332 4.73341C25.5198 5.10675 27.6798 7.33341 27.9598 10.5601C27.9673 10.6514 27.9556 10.7433 27.9253 10.8297C27.895 10.9162 27.8468 10.9953 27.7839 11.0619C27.7211 11.1286 27.6449 11.1812 27.5603 11.2165C27.4758 11.2518 27.3848 11.2689 27.2932 11.2667H25.2265C23.9465 11.2667 22.7598 11.7601 21.9065 12.6401C20.8932 13.6267 20.3865 15.0134 20.5065 16.4001C20.7198 18.8267 22.8532 20.7334 25.3865 20.7334H27.2932C27.6798 20.7334 27.9998 21.0534 27.9598 21.4401Z" fill="#667EFA"/>
<path d="M29.3335 14.6266V17.3733C29.3335 18.1066 28.7468 18.7066 28.0001 18.7333H25.3868C23.9468 18.7333 22.6268 17.6799 22.5068 16.2399C22.4268 15.3999 22.7468 14.6133 23.3068 14.0666C23.8001 13.5599 24.4801 13.2666 25.2268 13.2666H28.0001C28.7468 13.2933 29.3335 13.8933 29.3335 14.6266Z" fill="#667EFA"/>
</svg>
