<svg width="32" height="33" viewBox="0 0 32 33" fill="none" xmlns="http://www.w3.org/2000/svg">
<g clip-path="url(#clip0_11158_3933)">
<path d="M7.20044 1.15283H20.8352L27.4006 7.18213V29.354C27.4006 30.7899 26.2369 31.9544 24.801 31.9546H7.20044C5.76446 31.9546 4.59985 30.79 4.59985 29.354V3.75342C4.59985 2.31743 5.76446 1.15283 7.20044 1.15283Z" stroke="#D0D5DD" stroke-width="1.20004"/>
<mask id="path-2-inside-1_11158_3933" fill="white">
<path d="M20.0005 1.35303H26.8007V8.15323H20.8005C20.3587 8.15323 20.0005 7.79505 20.0005 7.35321V1.35303Z"/>
</mask>
<path d="M20.0005 1.35303H26.8007H20.0005ZM26.8007 8.95326H20.8005C19.9168 8.95326 19.2005 8.23689 19.2005 7.35321H20.8005H26.8007V8.95326ZM20.8005 8.95326C19.9168 8.95326 19.2005 8.23689 19.2005 7.35321V1.35303H20.8005V7.35321V8.95326ZM26.8007 1.35303V8.15323V1.35303Z" fill="#D0D5DD" mask="url(#path-2-inside-1_11158_3933)"/>
<rect x="0.800049" y="16.5537" width="23.2001" height="10.8001" rx="1.60005" fill="#6172F3"/>
<path d="M5.37493 19.3374C5.96695 19.3374 6.4843 19.4548 6.92698 19.6895C7.36966 19.9241 7.711 20.2548 7.95101 20.6815C8.19635 21.1028 8.31902 21.5908 8.31902 22.1455C8.31902 22.6949 8.19635 23.1829 7.95101 23.6096C7.711 24.0363 7.36699 24.3669 6.91898 24.6016C6.4763 24.8363 5.96162 24.9536 5.37493 24.9536H3.27087V19.3374H5.37493ZM5.28693 23.7696C5.80428 23.7696 6.20696 23.6282 6.49497 23.3456C6.78298 23.0629 6.92698 22.6629 6.92698 22.1455C6.92698 21.6282 6.78298 21.2255 6.49497 20.9375C6.20696 20.6495 5.80428 20.5055 5.28693 20.5055H4.63891V23.7696H5.28693ZM8.85154 22.1375C8.85154 21.5828 8.97154 21.0895 9.21155 20.6575C9.45156 20.2201 9.7849 19.8815 10.2116 19.6415C10.6436 19.3961 11.1316 19.2734 11.6756 19.2734C12.3423 19.2734 12.913 19.4494 13.3877 19.8015C13.8624 20.1535 14.1797 20.6335 14.3397 21.2415H12.8357C12.7237 21.0068 12.5637 20.8282 12.3556 20.7055C12.153 20.5828 11.921 20.5215 11.6596 20.5215C11.2383 20.5215 10.8969 20.6681 10.6356 20.9615C10.3743 21.2548 10.2436 21.6468 10.2436 22.1375C10.2436 22.6282 10.3743 23.0202 10.6356 23.3136C10.8969 23.6069 11.2383 23.7536 11.6596 23.7536C11.921 23.7536 12.153 23.6922 12.3556 23.5696C12.5637 23.4469 12.7237 23.2682 12.8357 23.0336H14.3397C14.1797 23.6416 13.8624 24.1216 13.3877 24.4736C12.913 24.8203 12.3423 24.9936 11.6756 24.9936C11.1316 24.9936 10.6436 24.8736 10.2116 24.6336C9.7849 24.3883 9.45156 24.0496 9.21155 23.6176C8.97154 23.1856 8.85154 22.6922 8.85154 22.1375ZM21.5377 19.3374V24.9536H20.1696V21.5855L18.9136 24.9536H17.8096L16.5455 21.5775V24.9536H15.1775V19.3374H16.7935L18.3696 23.2256L19.9296 19.3374H21.5377Z" fill="white"/>
</g>
<defs>
<clipPath id="clip0_11158_3933">
<rect width="32.001" height="32.001" fill="white" transform="translate(0 0.553223)"/>
</clipPath>
</defs>
</svg>
