<svg width="32" height="32" viewBox="0 0 32 32" fill="none" xmlns="http://www.w3.org/2000/svg">
<path d="M7.20044 0.599609H20.8352L27.4006 6.62891V28.8008C27.4006 30.2367 26.2369 31.4012 24.801 31.4014H7.20044C5.76446 31.4014 4.59985 30.2368 4.59985 28.8008V3.2002C4.59985 1.76421 5.76446 0.599609 7.20044 0.599609Z" stroke="#D0D5DD" stroke-width="1.20004"/>
<mask id="path-2-inside-1_11419_4899" fill="white">
<path d="M20.0005 0.799805H26.8007V7.60001H20.8005C20.3587 7.60001 20.0005 7.24183 20.0005 6.79999V0.799805Z"/>
</mask>
<path d="M20.0005 0.799805H26.8007H20.0005ZM26.8007 8.40004H20.8005C19.9168 8.40004 19.2005 7.68367 19.2005 6.79999H20.8005H26.8007V8.40004ZM20.8005 8.40004C19.9168 8.40004 19.2005 7.68367 19.2005 6.79999V0.799805H20.8005V6.79999V8.40004ZM26.8007 0.799805V7.60001V0.799805Z" fill="#D0D5DD" mask="url(#path-2-inside-1_11419_4899)"/>
<rect x="0.800049" y="16.0005" width="23.2001" height="10.8001" rx="1.60005" fill="#6172F3"/>
<path d="M5.37493 18.7842C5.96695 18.7842 6.4843 18.9016 6.92698 19.1362C7.36966 19.3709 7.711 19.7016 7.95101 20.1283C8.19635 20.5496 8.31902 21.0376 8.31902 21.5923C8.31902 22.1417 8.19635 22.6297 7.95101 23.0563C7.711 23.483 7.36699 23.8137 6.91898 24.0484C6.4763 24.2831 5.96162 24.4004 5.37493 24.4004H3.27087V18.7842H5.37493ZM5.28693 23.2164C5.80428 23.2164 6.20696 23.075 6.49497 22.7923C6.78298 22.5097 6.92698 22.1097 6.92698 21.5923C6.92698 21.075 6.78298 20.6723 6.49497 20.3843C6.20696 20.0963 5.80428 19.9523 5.28693 19.9523H4.63891V23.2164H5.28693ZM8.85154 21.5843C8.85154 21.0296 8.97154 20.5363 9.21155 20.1043C9.45156 19.6669 9.7849 19.3282 10.2116 19.0882C10.6436 18.8429 11.1316 18.7202 11.6756 18.7202C12.3423 18.7202 12.913 18.8962 13.3877 19.2482C13.8624 19.6002 14.1797 20.0803 14.3397 20.6883H12.8357C12.7237 20.4536 12.5637 20.2749 12.3556 20.1523C12.153 20.0296 11.921 19.9683 11.6596 19.9683C11.2383 19.9683 10.8969 20.1149 10.6356 20.4083C10.3743 20.7016 10.2436 21.0936 10.2436 21.5843C10.2436 22.075 10.3743 22.467 10.6356 22.7603C10.8969 23.0537 11.2383 23.2004 11.6596 23.2004C11.921 23.2004 12.153 23.139 12.3556 23.0163C12.5637 22.8937 12.7237 22.715 12.8357 22.4803H14.3397C14.1797 23.0884 13.8624 23.5684 13.3877 23.9204C12.913 24.2671 12.3423 24.4404 11.6756 24.4404C11.1316 24.4404 10.6436 24.3204 10.2116 24.0804C9.7849 23.835 9.45156 23.4964 9.21155 23.0643C8.97154 22.6323 8.85154 22.139 8.85154 21.5843ZM21.5377 18.7842V24.4004H20.1696V21.0323L18.9136 24.4004H17.8096L16.5455 21.0243V24.4004H15.1775V18.7842H16.7935L18.3696 22.6723L19.9296 18.7842H21.5377Z" fill="white"/>
</svg>
