<svg width="19" height="20" viewBox="0 0 19 20" fill="none" xmlns="http://www.w3.org/2000/svg">
<path d="M17.0119 3.85L11.0719 0.42C10.1019 -0.14 8.90188 -0.14 7.92188 0.42L1.99188 3.85C1.51365 4.12727 1.11681 4.52552 0.841228 5.00472C0.565643 5.48392 0.421017 6.02721 0.421879 6.58V13.42C0.421879 14.54 1.02188 15.58 1.99188 16.15L7.93188 19.58C8.90188 20.14 10.1019 20.14 11.0819 19.58L17.0219 16.15C17.5001 15.8727 17.8969 15.4745 18.1725 14.9953C18.4481 14.5161 18.5927 13.9728 18.5919 13.42V6.58C18.5875 6.02708 18.4396 5.48477 18.1627 5.0062C17.8857 4.52764 17.4891 4.12922 17.0119 3.85ZM9.50188 5.34C10.7919 5.34 11.8319 6.38 11.8319 7.67C11.8319 8.96 10.7919 10 9.50188 10C8.21188 10 7.17188 8.96 7.17188 7.67C7.17188 6.39 8.21188 5.34 9.50188 5.34ZM12.1819 14.66H6.82188C6.01188 14.66 5.54188 13.76 5.99188 13.09C6.67188 12.08 7.99188 11.4 9.50188 11.4C11.0119 11.4 12.3319 12.08 13.0119 13.09C13.4619 13.75 12.9819 14.66 12.1819 14.66Z" fill="white"/>
</svg>
