<svg width="60" height="60" viewBox="0 0 60 60" fill="none" xmlns="http://www.w3.org/2000/svg">
<path d="M47.8002 22.7999C46.8252 22.7999 46.0502 23.5749 46.0502 24.5499V28.4999C46.0502 37.3499 38.8502 44.5499 30.0002 44.5499C21.1502 44.5499 13.9502 37.3499 13.9502 28.4999V24.5249C13.9502 23.5499 13.1752 22.7749 12.2002 22.7749C11.2252 22.7749 10.4502 23.5499 10.4502 24.5249V28.4749C10.4502 38.6499 18.2752 47.0249 28.2502 47.9249V53.2499C28.2502 54.2249 29.0252 54.9999 30.0002 54.9999C30.9752 54.9999 31.7502 54.2249 31.7502 53.2499V47.9249C41.7002 47.0499 49.5502 38.6499 49.5502 28.4749V24.5249C49.5392 24.0666 49.3505 23.6304 49.024 23.3086C48.6975 22.9867 48.2587 22.8043 47.8002 22.7999Z" fill="#667EFA"/>
<path d="M29.9948 5C23.8948 5 18.9448 9.95 18.9448 16.05V28.85C18.9448 34.95 23.8948 39.9 29.9948 39.9C36.0948 39.9 41.0448 34.95 41.0448 28.85V16.05C41.0448 9.95 36.0948 5 29.9948 5ZM33.2698 22.375C33.0948 23.025 32.5198 23.45 31.8698 23.45C31.7448 23.45 31.6198 23.425 31.4948 23.4C30.5198 23.125 29.4948 23.125 28.5198 23.4C27.7198 23.625 26.9448 23.15 26.7448 22.375C26.5198 21.6 26.9948 20.8 27.7698 20.6C29.2448 20.2 30.7948 20.2 32.2698 20.6C33.0198 20.8 33.4698 21.6 33.2698 22.375ZM34.5948 17.525C34.4917 17.8059 34.3041 18.0479 34.058 18.218C33.8118 18.3881 33.519 18.4779 33.2198 18.475C33.0448 18.475 32.8948 18.45 32.7198 18.4C30.9698 17.75 29.0198 17.75 27.2698 18.4C26.905 18.5294 26.5039 18.5101 26.1532 18.3464C25.8024 18.1827 25.53 17.8877 25.3948 17.525C25.1198 16.775 25.5198 15.925 26.2698 15.675C28.6761 14.8 31.3136 14.8 33.7198 15.675C34.4698 15.95 34.8698 16.775 34.5948 17.525Z" fill="#667EFA"/>
</svg>
