<svg width="32" height="32" viewBox="0 0 32 32" fill="none" xmlns="http://www.w3.org/2000/svg">
<path d="M19.8533 4.60008H12.1466C11.6133 4.60008 11.1866 4.17341 11.1866 3.64008C11.1866 3.10675 11.6133 2.66675 12.1466 2.66675H19.8533C20.3866 2.66675 20.8133 3.09341 20.8133 3.62675C20.8133 4.16008 20.3866 4.60008 19.8533 4.60008ZM18.6666 26.6241V22.7041C18.6666 20.2907 20.2933 18.6641 22.7066 18.6641H26.6266C26.9333 18.6641 27.2266 18.6907 27.5066 18.7441C27.5333 18.4241 27.5599 18.1041 27.5599 17.7707C27.5599 11.3841 22.3733 6.19741 15.9999 6.19741C9.62661 6.19741 4.43994 11.3841 4.43994 17.7707C4.43994 24.1441 9.62661 29.3307 15.9999 29.3307C17.1333 29.3307 18.2133 29.1441 19.2533 28.8507C18.8586 28.1758 18.6558 27.4059 18.6666 26.6241ZM16.9999 17.3307C16.9999 17.8774 16.5466 18.3307 15.9999 18.3307C15.4533 18.3307 14.9999 17.8774 14.9999 17.3307V10.6641C14.9999 10.1174 15.4533 9.66408 15.9999 9.66408C16.5466 9.66408 16.9999 10.1174 16.9999 10.6641V17.3307Z" fill="#667EFA"/>
<path d="M26.6267 20H22.72C21.0133 20 20 21.0133 20 22.7067V26.6267C20 28.32 21.0133 29.3333 22.72 29.3333H26.6267C28.32 29.3333 29.3333 28.32 29.3333 26.6267V22.7067C29.3333 21.0133 28.32 20 26.6267 20ZM23.8933 26.7467C23.8933 27.1733 23.5467 27.52 23.1067 27.52C22.9016 27.52 22.7049 27.4385 22.5598 27.2935C22.4148 27.1485 22.3333 26.9518 22.3333 26.7467V22.5867C22.3333 22.16 22.68 21.8133 23.1067 21.8133C23.5467 21.8133 23.8933 22.16 23.8933 22.5867V26.7467ZM27 26.7467C27 27.1733 26.6533 27.52 26.2267 27.52C25.8 27.52 25.44 27.1733 25.44 26.7467V22.5867C25.44 22.16 25.8 21.8133 26.2267 21.8133C26.6533 21.8133 27 22.16 27 22.5867V26.7467Z" fill="#667EFA"/>
</svg>
