<svg width="32" height="32" viewBox="0 0 32 32" fill="none" xmlns="http://www.w3.org/2000/svg">
<path d="M7.20044 0.599609H20.8352L27.4006 6.62891V28.8008C27.4006 30.2367 26.2369 31.4012 24.801 31.4014H7.20044C5.76446 31.4014 4.59985 30.2368 4.59985 28.8008V3.2002C4.59985 1.76421 5.76446 0.599609 7.20044 0.599609Z" stroke="#D0D5DD" stroke-width="1.20004"/>
<mask id="path-2-inside-1_12162_3400" fill="white">
<path d="M20.0005 0.799805H26.8007V7.60001H20.8005C20.3587 7.60001 20.0005 7.24183 20.0005 6.79999V0.799805Z"/>
</mask>
<path d="M20.0005 0.799805H26.8007H20.0005ZM26.8007 8.40004H20.8005C19.9168 8.40004 19.2005 7.68367 19.2005 6.79999H20.8005H26.8007V8.40004ZM20.8005 8.40004C19.9168 8.40004 19.2005 7.68367 19.2005 6.79999V0.799805H20.8005V6.79999V8.40004ZM26.8007 0.799805V7.60001V0.799805Z" fill="#D0D5DD" mask="url(#path-2-inside-1_12162_3400)"/>
<rect x="0.800049" y="16.0005" width="18.2001" height="10.8001" rx="1.60005" fill="#17B26A"/>
<path d="M6.60948 24.4004L5.46545 22.6803L4.45742 24.4004H2.90537L4.70543 21.5443L2.86537 18.7842H4.45742L5.58545 20.4803L6.57748 18.7842H8.12953L6.34548 21.6163L8.20153 24.4004H6.60948ZM10.2563 23.3444H12.0484V24.4004H8.8883V18.7842H10.2563V23.3444ZM14.733 24.4564C14.3223 24.4564 13.9543 24.3897 13.6289 24.2564C13.3036 24.123 13.0423 23.9257 12.8449 23.6644C12.6529 23.403 12.5516 23.0884 12.5409 22.7203H13.997C14.0183 22.9283 14.0903 23.0884 14.213 23.2004C14.3356 23.307 14.4956 23.3604 14.693 23.3604C14.8957 23.3604 15.0557 23.315 15.173 23.2244C15.2903 23.1284 15.349 22.9977 15.349 22.8323C15.349 22.6937 15.301 22.579 15.205 22.4883C15.1143 22.3977 14.9997 22.323 14.861 22.2643C14.7276 22.2057 14.5356 22.139 14.285 22.0643C13.9223 21.9523 13.6263 21.8403 13.3969 21.7283C13.1676 21.6163 12.9703 21.451 12.8049 21.2323C12.6396 21.0136 12.5569 20.7283 12.5569 20.3763C12.5569 19.8536 12.7463 19.4456 13.1249 19.1522C13.5036 18.8536 13.997 18.7042 14.605 18.7042C15.2237 18.7042 15.7223 18.8536 16.101 19.1522C16.4797 19.4456 16.6824 19.8563 16.709 20.3843H15.229C15.2183 20.2029 15.1517 20.0616 15.029 19.9603C14.9063 19.8536 14.749 19.8002 14.557 19.8002C14.3916 19.8002 14.2583 19.8456 14.157 19.9363C14.0556 20.0216 14.005 20.1469 14.005 20.3123C14.005 20.4936 14.0903 20.6349 14.261 20.7363C14.4316 20.8376 14.6983 20.947 15.061 21.0643C15.4237 21.187 15.717 21.3043 15.941 21.4163C16.1704 21.5283 16.3677 21.691 16.533 21.9043C16.6984 22.1177 16.781 22.3923 16.781 22.7283C16.781 23.0483 16.6984 23.339 16.533 23.6004C16.373 23.8617 16.1384 24.0697 15.829 24.2244C15.5197 24.3791 15.1543 24.4564 14.733 24.4564Z" fill="white"/>
</svg>
