<!DOCTYPE svg PUBLIC "-//W3C//DTD SVG 1.1//EN" "http://www.w3.org/Graphics/SVG/1.1/DTD/svg11.dtd">
<!-- Uploaded to: SVG Repo, www.svgrepo.com, Transformed by: SVG Repo Mixer Tools -->
<svg fill="#3569e3" height="800px" width="800px" version="1.1" id="Layer_1" xmlns="http://www.w3.org/2000/svg" xmlns:xlink="http://www.w3.org/1999/xlink" viewBox="0 0 24.00 24.00" xml:space="preserve" stroke="#3569e3" stroke-width="0.192">
<g id="SVGRepo_bgCarrier" stroke-width="0"/>
<g id="SVGRepo_tracerCarrier" stroke-linecap="round" stroke-linejoin="round" stroke="#CCCCCC" stroke-width="0.24000000000000005"/>
<g id="SVGRepo_iconCarrier"> <g id="cloud-upload"> <path d="M13,21h-2v-6.6l-2.3,2.3l-1.4-1.4l4.8-4.7l4.7,4.7l-1.4,1.4L13,14.4V21z M6,19c-3.5,0-6-2.9-6-6c0-3.3,2.7-5.9,6-6l0,0 c0-2.8,2.2-5,5-5h3c2.8,0,5,2.2,5,5v0.1c2.9,0.4,5,2.8,5,5.9c0,3.3-2.7,6-6,6v-2l0,0c2.2,0,4-1.8,4-4c0-2.3-1.7-4-4-4h-1V7 c0-1.7-1.3-3-3-3h-3C9.4,4,8,5.4,8,7h4v2H6.1C3.8,9,2,10.8,2,13s1.8,4,4,4V19"/> </g> </g>
</svg>