<svg width="20" height="22" viewBox="0 0 20 22" fill="none" xmlns="http://www.w3.org/2000/svg">
<path d="M18.7002 4.68042C15.3702 4.35042 12.0202 4.18042 8.68019 4.18042C6.70019 4.18042 4.7202 4.28042 2.7402 4.48042L0.700195 4.68042" stroke="#565555" stroke-width="1.4" stroke-linecap="round" stroke-linejoin="round"/>
<path d="M6.2002 3.66995L6.4202 2.35995C6.5802 1.40995 6.70019 0.699951 8.39019 0.699951H11.0102C12.7002 0.699951 12.8302 1.44995 12.9802 2.36995L13.2002 3.66995" stroke="#565555" stroke-width="1.4" stroke-linecap="round" stroke-linejoin="round"/>
<path d="M16.5501 7.84058L15.9001 17.9106C15.7901 19.4806 15.7001 20.7006 12.9101 20.7006H6.4901C3.7001 20.7006 3.6101 19.4806 3.5001 17.9106L2.8501 7.84058" stroke="#565555" stroke-width="1.4" stroke-linecap="round" stroke-linejoin="round"/>
<path d="M8.03027 15.2H11.3603" stroke="#565555" stroke-width="1.4" stroke-linecap="round" stroke-linejoin="round"/>
<path d="M7.2002 11.2H12.2002" stroke="#565555" stroke-width="1.4" stroke-linecap="round" stroke-linejoin="round"/>
</svg>
